<svg width="535.6525024414062px" height="100.98374023437499px" xmlns="http://www.w3.org/2000/svg" viewBox="-17.826251220703114 24.508129882812504 535.6525024414062 100.98374023437499" style="background: rgba(0, 0, 0, 0);" preserveAspectRatio="xMidYMid"><defs><filter id="editing-extrusion" x="-100%" y="-100%" width="300%" height="300%"><feFlood result="color1" flood-color="#444"></feFlood><feConvolveMatrix order="8,8" divisor="1" kernelMatrix="1 0 0 0 0 0 0 0 0 1 0 0 0 0 0 0 0 0 1 0 0 0 0 0 0 0 0 1 0 0 0 0 0 0 0 0 1 0 0 0 0 0 0 0 0 1 0 0 0 0 0 0 0 0 1 0 0 0 0 0 0 0 0 1" in="SourceAlpha" result="extrude"></feConvolveMatrix><feComposite in="color1" in2="extrude" result="comp-extrude" operator="in"></feComposite><feOffset dx="4" dy="4" in="comp-extrude" result="offset-extrude"></feOffset><feMerge><feMergeNode in="offset-extrude"></feMergeNode><feMergeNode in="SourceGraphic"></feMergeNode></feMerge></filter></defs><g filter="url(#editing-extrusion)"><g transform="translate(59.779998779296875, 104.75718688964844)"><path d="M5.75-6.41L5.75-38.41L5.75-38.41Q5.75-39.72 6.25-40.89L6.25-40.89L6.25-40.89Q6.75-42.06 7.63-42.92L7.63-42.92L7.63-42.92Q8.50-43.78 9.67-44.30L9.67-44.30L9.67-44.30Q10.84-44.81 12.16-44.81L12.16-44.81L36.47-44.81L36.47-44.81Q37.78-44.81 38.95-44.30L38.95-44.30L38.95-44.30Q40.13-43.78 41-42.92L41-42.92L41-42.92Q41.88-42.06 42.38-40.89L42.38-40.89L42.38-40.89Q42.88-39.72 42.88-38.41L42.88-38.41L42.88-32.63L36.47-32.63L36.47-38.41L12.16-38.41L12.16-6.41L36.47-6.41L36.47-17.28L24.31-17.28L24.31-23.69L42.88-23.69L42.88-6.41L42.88-6.41Q42.88-5.09 42.38-3.92L42.38-3.92L42.38-3.92Q41.88-2.75 41-1.88L41-1.88L41-1.88Q40.13-1 38.95-0.50L38.95-0.50L38.95-0.50Q37.78 0 36.47 0L36.47 0L12.16 0L12.16 0Q10.84 0 9.67-0.50L9.67-0.50L9.67-0.50Q8.50-1 7.63-1.88L7.63-1.88L7.63-1.88Q6.75-2.75 6.25-3.92L6.25-3.92L6.25-3.92Q5.75-5.09 5.75-6.41L5.75-6.41ZM72.56-27.13L59.88-27.13L59.88 0L53.75 0L53.75-33.28L59.88-33.28L59.88-27.41L59.88-27.41Q59.94-28.63 60.44-29.70L60.44-29.70L60.44-29.70Q60.94-30.78 61.77-31.58L61.77-31.58L61.77-31.58Q62.59-32.38 63.69-32.83L63.69-32.83L63.69-32.83Q64.78-33.28 66.03-33.28L66.03-33.28L72.56-33.28L72.56-33.28Q73.84-33.28 74.95-32.80L74.95-32.80L74.95-32.80Q76.06-32.31 76.91-31.48L76.91-31.48L76.91-31.48Q77.75-30.66 78.23-29.53L78.23-29.53L78.23-29.53Q78.72-28.41 78.72-27.13L78.72-27.13L78.72-21.50L72.56-21.50L72.56-27.13ZM86.69-33.28L92.84-33.28L92.84 0L86.69 0L86.69-33.28ZM86.38-39.69L86.38-46.09L93.16-46.09L93.16-39.69L86.38-39.69ZM103.41-6.16L103.41-27.13L103.41-27.13Q103.41-28.41 103.89-29.53L103.89-29.53L103.89-29.53Q104.38-30.66 105.20-31.48L105.20-31.48L105.20-31.48Q106.03-32.31 107.16-32.80L107.16-32.80L107.16-32.80Q108.28-33.28 109.53-33.28L109.53-33.28L126.69-33.28L126.69-46.09L132.84-46.09L132.84 0L126.69 0L126.69-5.63L126.69-5.63Q126.59-4.47 126.06-3.44L126.06-3.44L126.06-3.44Q125.53-2.41 124.70-1.64L124.70-1.64L124.70-1.64Q123.88-0.88 122.81-0.44L122.81-0.44L122.81-0.44Q121.75 0 120.56 0L120.56 0L109.53 0L109.53 0Q108.28 0 107.16-0.48L107.16-0.48L107.16-0.48Q106.03-0.97 105.20-1.80L105.20-1.80L105.20-1.80Q104.38-2.63 103.89-3.75L103.89-3.75L103.89-3.75Q103.41-4.88 103.41-6.16L103.41-6.16ZM109.53-27.13L109.53-6.16L126.69-6.16L126.69-27.13L109.53-27.13ZM139.88-38.41L139.88-44.81L175.72-44.81L175.72-38.41L161-38.41L161 0L154.59 0L154.59-38.41L139.88-38.41ZM178.94-6.16L178.94-14.53L178.94-14.53Q178.94-15.81 179.42-16.92L179.42-16.92L179.42-16.92Q179.91-18.03 180.73-18.88L180.73-18.88L180.73-18.88Q181.56-19.72 182.69-20.20L182.69-20.20L182.69-20.20Q183.81-20.69 185.06-20.69L185.06-20.69L200.94-20.69L200.94-27.13L180.84-27.13L180.84-33.28L200.94-33.28L200.94-33.28Q202.22-33.28 203.34-32.80L203.34-32.80L203.34-32.80Q204.47-32.31 205.30-31.48L205.30-31.48L205.30-31.48Q206.13-30.66 206.61-29.53L206.61-29.53L206.61-29.53Q207.09-28.41 207.09-27.13L207.09-27.13L207.09 0L200.94 0L200.94-5.63L200.94-5.63Q200.84-4.47 200.31-3.44L200.31-3.44L200.31-3.44Q199.78-2.41 198.95-1.64L198.95-1.64L198.95-1.64Q198.13-0.88 197.06-0.44L197.06-0.44L197.06-0.44Q196 0 194.81 0L194.81 0L185.06 0L185.06 0Q183.81 0 182.69-0.48L182.69-0.48L182.69-0.48Q181.56-0.97 180.73-1.80L180.73-1.80L180.73-1.80Q179.91-2.63 179.42-3.75L179.42-3.75L179.42-3.75Q178.94-4.88 178.94-6.16L178.94-6.16ZM185.06-14.53L185.06-6.16L200.94-6.16L200.94-14.53L185.06-14.53ZM246.78-27.13L246.78-6.16L246.78-6.16Q246.78-4.88 246.30-3.75L246.30-3.75L246.30-3.75Q245.81-2.63 244.98-1.80L244.98-1.80L244.98-1.80Q244.16-0.97 243.03-0.48L243.03-0.48L243.03-0.48Q241.91 0 240.63 0L240.63 0L223.47 0L223.47 0Q222.22 0 221.09-0.48L221.09-0.48L221.09-0.48Q219.97-0.97 219.14-1.80L219.14-1.80L219.14-1.80Q218.31-2.63 217.83-3.75L217.83-3.75L217.83-3.75Q217.34-4.88 217.34-6.16L217.34-6.16L217.34-46.09L223.47-46.09L223.47-27.41L223.47-27.41Q223.53-28.63 224.03-29.70L224.03-29.70L224.03-29.70Q224.53-30.78 225.36-31.58L225.36-31.58L225.36-31.58Q226.19-32.38 227.28-32.83L227.28-32.83L227.28-32.83Q228.38-33.28 229.63-33.28L229.63-33.28L240.63-33.28L240.63-33.28Q241.91-33.28 243.03-32.80L243.03-32.80L243.03-32.80Q244.16-32.31 244.98-31.48L244.98-31.48L244.98-31.48Q245.81-30.66 246.30-29.53L246.30-29.53L246.30-29.53Q246.78-28.41 246.78-27.13L246.78-27.13ZM240.63-27.13L223.47-27.13L223.47-6.16L240.63-6.16L240.63-27.13ZM257.03-46.09L263.16-46.09L263.16 0L257.03 0L257.03-46.09ZM301.56-27.13L301.56-13.50L279.53-13.50L279.53-6.16L301.56-6.16L301.56 0L279.53 0L279.53 0Q278.28 0 277.16-0.48L277.16-0.48L277.16-0.48Q276.03-0.97 275.20-1.80L275.20-1.80L275.20-1.80Q274.38-2.63 273.89-3.75L273.89-3.75L273.89-3.75Q273.41-4.88 273.41-6.16L273.41-6.16L273.41-27.13L273.41-27.13Q273.41-28.41 273.89-29.53L273.89-29.53L273.89-29.53Q274.38-30.66 275.20-31.48L275.20-31.48L275.20-31.48Q276.03-32.31 277.16-32.80L277.16-32.80L277.16-32.80Q278.28-33.28 279.53-33.28L279.53-33.28L295.41-33.28L295.41-33.28Q296.69-33.28 297.81-32.80L297.81-32.80L297.81-32.80Q298.94-32.31 299.77-31.48L299.77-31.48L299.77-31.48Q300.59-30.66 301.08-29.53L301.08-29.53L301.08-29.53Q301.56-28.41 301.56-27.13L301.56-27.13ZM295.41-27.13L279.53-27.13L279.53-19.66L295.41-19.66L295.41-27.13ZM311.81 0L311.81-9.34L321.16-9.34L321.16 0L311.81 0ZM326.91 7.28L331.72 7.28L331.72-33.28L337.88-33.28L337.88 7.28L337.88 7.28Q337.88 8.56 337.39 9.69L337.39 9.69L337.39 9.69Q336.91 10.81 336.08 11.64L336.08 11.64L336.08 11.64Q335.25 12.47 334.13 12.95L334.13 12.95L334.13 12.95Q333 13.44 331.72 13.44L331.72 13.44L326.91 13.44L326.91 7.28ZM331.41-39.69L331.41-46.09L338.19-46.09L338.19-39.69L331.41-39.69ZM347.78-6.16L368.53-6.16L368.53-13.88L353.94-13.88L353.94-13.88Q352.66-13.88 351.53-14.36L351.53-14.36L351.53-14.36Q350.41-14.84 349.58-15.67L349.58-15.67L349.58-15.67Q348.75-16.50 348.27-17.63L348.27-17.63L348.27-17.63Q347.78-18.75 347.78-20.03L347.78-20.03L347.78-27.13L347.78-27.13Q347.78-28.41 348.27-29.53L348.27-29.53L348.27-29.53Q348.75-30.66 349.58-31.48L349.58-31.48L349.58-31.48Q350.41-32.31 351.53-32.80L351.53-32.80L351.53-32.80Q352.66-33.28 353.94-33.28L353.94-33.28L373.41-33.28L373.41-27.13L353.94-27.13L353.94-20.03L368.53-20.03L368.53-20.03Q369.81-20.03 370.92-19.55L370.92-19.55L370.92-19.55Q372.03-19.06 372.88-18.23L372.88-18.23L372.88-18.23Q373.72-17.41 374.20-16.28L374.20-16.28L374.20-16.28Q374.69-15.16 374.69-13.88L374.69-13.88L374.69-6.16L374.69-6.16Q374.69-4.88 374.20-3.75L374.20-3.75L374.20-3.75Q373.72-2.63 372.88-1.80L372.88-1.80L372.88-1.80Q372.03-0.97 370.92-0.48L370.92-0.48L370.92-0.48Q369.81 0 368.53 0L368.53 0L347.78 0L347.78-6.16Z" fill="#ccc"></path></g></g><style>text {
  font-size: 64px;
  font-family: Arial Black;
  dominant-baseline: central;
  text-anchor: middle;
}</style></svg>